<svg width="278" height="39" viewBox="0 0 278 39" fill="none" xmlns="http://www.w3.org/2000/svg">
<g clip-path="url(#clip0_181_6564)">
<path d="M137.32 37.692V0.647998H164.644V7.236H145.366V16.416H162.592V22.95H145.366V37.692H137.32ZM166.592 37.692V0.647998H174.638V30.834H193.322V37.692H166.592ZM209.822 38.34C205.898 38.34 202.514 37.638 199.67 36.234C196.826 34.83 194.648 32.706 193.136 29.862C191.624 27.018 190.868 23.454 190.868 19.17C190.868 14.814 191.624 11.232 193.136 8.42399C194.648 5.57999 196.826 3.47399 199.67 2.10599C202.514 0.701999 205.898 0 209.822 0C213.818 0 217.22 0.701999 220.028 2.10599C222.872 3.47399 225.05 5.57999 226.562 8.42399C228.074 11.232 228.83 14.814 228.83 19.17C228.83 23.454 228.074 27.018 226.562 29.862C225.05 32.706 222.872 34.83 220.028 36.234C217.22 37.638 213.818 38.34 209.822 38.34ZM209.822 31.752C211.586 31.752 213.134 31.5 214.466 30.996C215.798 30.492 216.914 29.736 217.814 28.728C218.714 27.72 219.398 26.496 219.866 25.056C220.334 23.58 220.568 21.906 220.568 20.034V18.36C220.568 16.452 220.334 14.76 219.866 13.284C219.398 11.808 218.714 10.584 217.814 9.61199C216.914 8.60399 215.798 7.84799 214.466 7.34399C213.134 6.83999 211.586 6.58799 209.822 6.58799C208.094 6.58799 206.564 6.83999 205.232 7.34399C203.9 7.84799 202.784 8.60399 201.884 9.61199C200.984 10.584 200.3 11.808 199.832 13.284C199.4 14.76 199.184 16.452 199.184 18.36V20.034C199.184 21.906 199.4 23.58 199.832 25.056C200.3 26.496 200.984 27.72 201.884 28.728C202.784 29.736 203.9 30.492 205.232 30.996C206.564 31.5 208.094 31.752 209.822 31.752ZM236.3 37.692L226.58 0.647998H235.112L240.512 22.734C240.62 23.058 240.728 23.544 240.836 24.192C240.944 24.804 241.052 25.452 241.16 26.136C241.268 26.82 241.358 27.432 241.43 27.972H241.7C241.772 27.576 241.826 27.126 241.862 26.622C241.934 26.118 242.006 25.632 242.078 25.164C242.186 24.66 242.276 24.192 242.348 23.76C242.456 23.328 242.528 22.986 242.564 22.734L247.586 0.647998H257.198L262.328 22.734C262.436 23.094 262.544 23.58 262.652 24.192C262.76 24.804 262.868 25.452 262.976 26.136C263.084 26.82 263.174 27.432 263.246 27.972H263.516C263.588 27.576 263.66 27.144 263.732 26.676C263.84 26.208 263.93 25.74 264.002 25.272C264.11 24.768 264.218 24.3 264.326 23.868C264.434 23.436 264.524 23.058 264.596 22.734L269.942 0.647998H277.664L267.89 37.692H258.71L253.256 14.904C253.148 14.4 253.022 13.824 252.878 13.176C252.77 12.492 252.662 11.826 252.554 11.178C252.446 10.53 252.356 9.954 252.284 9.45H252.068C251.996 9.954 251.906 10.548 251.798 11.232C251.726 11.916 251.618 12.582 251.474 13.23C251.366 13.878 251.258 14.436 251.15 14.904L245.75 37.692H236.3Z" fill="#1E1E1E"/>
<path d="M70.9721 37.692V0.64801H100.564V7.23602H79.0721V15.498H98.0801V22.032H79.0721V31.05H100.888V36.2412L113.233 18.198L101.191 0.64801H111.019L118.687 12.366H118.957L126.571 0.64801H135.805L123.709 18.198L137.047 37.692H127.219L118.309 23.976H118.039L109.183 37.692H100.888H99.8954H70.9721Z" fill="#5123AB"/>
<path fill-rule="evenodd" clip-rule="evenodd" d="M0 37.692L14.256 0.64801H24.192L38.448 37.692H29.754L27.108 30.402H10.962L8.316 37.692H0ZM24.786 23.922H13.284L16.578 14.796C16.758 14.256 16.992 13.572 17.28 12.744C17.568 11.88 17.856 10.998 18.144 10.098C18.432 9.16202 18.666 8.35202 18.846 7.66801H19.17C19.35 8.20802 19.53 8.82002 19.71 9.50402C19.926 10.152 20.142 10.818 20.358 11.502C20.574 12.186 20.772 12.816 20.952 13.392C21.168 13.932 21.348 14.4 21.492 14.796L24.786 23.922Z" fill="#5123AB"/>
<path fill-rule="evenodd" clip-rule="evenodd" d="M38.5362 37.692V0.64801H57.8142C60.4782 0.64801 62.6922 1.15201 64.4562 2.16001C66.2562 3.13201 67.6062 4.51801 68.5062 6.31801C69.4422 8.08202 69.9102 10.188 69.9102 12.636C69.9102 15.084 69.4242 17.226 68.4522 19.062C67.5162 20.862 66.1302 22.266 64.2942 23.274C62.4582 24.282 60.2082 24.786 57.5442 24.786H46.5822V37.692H38.5362ZM56.4642 18.198H46.5822V7.23602H56.4642C57.6522 7.23602 58.6242 7.45202 59.3802 7.88401C60.1722 8.31602 60.7662 8.92802 61.1622 9.72002C61.5582 10.512 61.7562 11.502 61.7562 12.69C61.7562 14.418 61.2882 15.768 60.3522 16.74C59.4522 17.712 58.1562 18.198 56.4642 18.198Z" fill="#5123AB"/>
</g>
<defs>
<clipPath id="clip0_181_6564">
<rect width="278" height="39" fill="white"/>
</clipPath>
</defs>
</svg>
