<svg width="28" height="28" viewBox="0 0 28 28" fill="none" xmlns="http://www.w3.org/2000/svg">
<path fill-rule="evenodd" clip-rule="evenodd" d="M22.75 7.58333C22.2859 7.58333 21.8408 7.76771 21.5126 8.0959C21.1844 8.42408 21 8.8692 21 9.33333V10.5H24.5V9.33333C24.5 8.8692 24.3156 8.42408 23.9874 8.0959C23.6592 7.76771 23.2141 7.58333 22.75 7.58333ZM24.5 11.6667H21V21.2917L22.75 23.9167L24.5 21.2917V11.6667ZM3.5 5.25V22.75C3.5 23.2141 3.68437 23.6592 4.01256 23.9874C4.34075 24.3156 4.78587 24.5 5.25 24.5H18.0833C18.5475 24.5 18.9926 24.3156 19.3208 23.9874C19.649 23.6592 19.8333 23.2141 19.8333 22.75V5.25C19.8333 4.78587 19.649 4.34075 19.3208 4.01256C18.9926 3.68437 18.5475 3.5 18.0833 3.5H5.25C4.78587 3.5 4.34075 3.68437 4.01256 4.01256C3.68437 4.34075 3.5 4.78587 3.5 5.25ZM11.6667 8.75C11.6667 8.59529 11.7281 8.44692 11.8375 8.33752C11.9469 8.22812 12.0953 8.16667 12.25 8.16667H16.9167C17.0714 8.16667 17.2197 8.22812 17.3291 8.33752C17.4385 8.44692 17.5 8.59529 17.5 8.75C17.5 8.90471 17.4385 9.05308 17.3291 9.16248C17.2197 9.27187 17.0714 9.33333 16.9167 9.33333H12.25C12.0953 9.33333 11.9469 9.27187 11.8375 9.16248C11.7281 9.05308 11.6667 8.90471 11.6667 8.75ZM12.25 10.5C12.0953 10.5 11.9469 10.5615 11.8375 10.6709C11.7281 10.7803 11.6667 10.9286 11.6667 11.0833C11.6667 11.238 11.7281 11.3864 11.8375 11.4958C11.9469 11.6052 12.0953 11.6667 12.25 11.6667H16.9167C17.0714 11.6667 17.2197 11.6052 17.3291 11.4958C17.4385 11.3864 17.5 11.238 17.5 11.0833C17.5 10.9286 17.4385 10.7803 17.3291 10.6709C17.2197 10.5615 17.0714 10.5 16.9167 10.5H12.25ZM11.6667 16.3333C11.6667 16.1786 11.7281 16.0302 11.8375 15.9209C11.9469 15.8115 12.0953 15.75 12.25 15.75H16.9167C17.0714 15.75 17.2197 15.8115 17.3291 15.9209C17.4385 16.0302 17.5 16.1786 17.5 16.3333C17.5 16.488 17.4385 16.6364 17.3291 16.7458C17.2197 16.8552 17.0714 16.9167 16.9167 16.9167H12.25C12.0953 16.9167 11.9469 16.8552 11.8375 16.7458C11.7281 16.6364 11.6667 16.488 11.6667 16.3333ZM12.25 18.0833C12.0953 18.0833 11.9469 18.1448 11.8375 18.2542C11.7281 18.3636 11.6667 18.512 11.6667 18.6667C11.6667 18.8214 11.7281 18.9697 11.8375 19.0791C11.9469 19.1885 12.0953 19.25 12.25 19.25H16.9167C17.0714 19.25 17.2197 19.1885 17.3291 19.0791C17.4385 18.9697 17.5 18.8214 17.5 18.6667C17.5 18.512 17.4385 18.3636 17.3291 18.2542C17.2197 18.1448 17.0714 18.0833 16.9167 18.0833H12.25ZM7 16.3333V18.0833H8.75V16.3333H7ZM6.41667 15.1667H9.33333C9.48804 15.1667 9.63642 15.2281 9.74581 15.3375C9.85521 15.4469 9.91667 15.5953 9.91667 15.75V18.6667C9.91667 18.8214 9.85521 18.9697 9.74581 19.0791C9.63642 19.1885 9.48804 19.25 9.33333 19.25H6.41667C6.26196 19.25 6.11358 19.1885 6.00419 19.0791C5.89479 18.9697 5.83333 18.8214 5.83333 18.6667V15.75C5.83333 15.5953 5.89479 15.4469 6.00419 15.3375C6.11358 15.2281 6.26196 15.1667 6.41667 15.1667ZM10.3291 9.16242C10.4353 9.0524 10.4941 8.90505 10.4928 8.7521C10.4915 8.59915 10.4301 8.45284 10.322 8.34469C10.2138 8.23653 10.0675 8.17519 9.91457 8.17386C9.76162 8.17253 9.61427 8.23132 9.50425 8.33758L7.58333 10.2585L6.82908 9.50425C6.71907 9.39799 6.57171 9.33919 6.41877 9.34052C6.26582 9.34185 6.11951 9.4032 6.01136 9.51136C5.9032 9.61951 5.84185 9.76582 5.84052 9.91877C5.83919 10.0717 5.89799 10.2191 6.00425 10.3291L7.58333 11.9082L10.3291 9.16242Z" fill="#FF682E"/>
</svg>
