<svg width="24" height="24" viewBox="0 0 24 24" fill="none" xmlns="http://www.w3.org/2000/svg">
<path d="M14.2538 2.2665C13.5143 2.09 12.7573 2.001 11.9973 2.001C11.2389 2.00168 10.4833 2.09129 9.74577 2.268C9.55189 2.31469 9.37711 2.41999 9.24523 2.56959C9.11335 2.71918 9.03078 2.90579 9.00877 3.104L8.83977 4.6395C8.81102 4.91401 8.68533 5.16928 8.48527 5.35945C8.28521 5.54961 8.02389 5.6622 7.74827 5.677C7.56477 5.685 7.38227 5.6505 7.21427 5.577L5.81077 4.9615C5.68876 4.90656 5.55661 4.87774 5.4228 4.87687C5.28899 4.87601 5.15648 4.90314 5.03378 4.9565C4.91027 5.009 4.79977 5.087 4.70877 5.1855C3.67717 6.29814 2.9068 7.62692 2.45377 9.075C2.39437 9.26712 2.39614 9.47295 2.45884 9.66402C2.52155 9.85509 2.64208 10.0219 2.80377 10.1415L4.05077 11.0615C4.1993 11.1694 4.32018 11.3109 4.40353 11.4744C4.48688 11.638 4.53034 11.8189 4.53034 12.0025C4.53034 12.1861 4.48688 12.367 4.40353 12.5306C4.32018 12.6941 4.1993 12.8356 4.05077 12.9435L2.80777 13.8615C2.64558 13.9812 2.52473 14.1485 2.462 14.3401C2.39927 14.5317 2.3978 14.738 2.45778 14.9305C2.91011 16.3791 3.68154 17.7079 4.71527 18.819C4.85236 18.9651 5.03132 19.0652 5.22756 19.1054C5.42381 19.1457 5.62772 19.1243 5.81127 19.044L7.21427 18.426C7.35927 18.3605 7.51727 18.326 7.67727 18.326C7.96521 18.3268 8.24275 18.4337 8.45677 18.6263C8.67079 18.819 8.80627 19.0837 8.83727 19.37L9.00727 20.9C9.02925 21.1007 9.11332 21.2896 9.24776 21.4403C9.38221 21.5909 9.56033 21.6959 9.75727 21.7405C10.4911 21.9042 11.24 21.9912 11.9918 22C12.7487 21.991 13.5027 21.9039 14.2418 21.74C14.4386 21.6959 14.6167 21.5913 14.7512 21.441C14.8856 21.2906 14.9698 21.102 14.9918 20.9015L15.1618 19.3705C15.1941 19.0838 15.3308 18.8189 15.5458 18.6265C15.7655 18.4401 16.0422 18.3342 16.3303 18.3265C16.4892 18.3266 16.6463 18.3596 16.7918 18.4235L18.1918 19.0415C18.3759 19.1226 18.5807 19.1444 18.7778 19.1039C18.9749 19.0634 19.1545 18.9626 19.2918 18.8155C20.3238 17.7039 21.0943 16.3757 21.5468 14.928C21.6066 14.7356 21.6051 14.5293 21.5424 14.3379C21.4797 14.1464 21.3589 13.9792 21.1968 13.8595L19.9528 12.9415C19.7305 12.7773 19.5735 12.5398 19.5094 12.271C19.4452 12.0022 19.4781 11.7194 19.6023 11.4725C19.6849 11.3088 19.8047 11.1668 19.9523 11.058L21.1973 10.1385C21.3592 10.0189 21.4798 9.85185 21.5425 9.66058C21.6053 9.4693 21.6069 9.26326 21.5473 9.071C21.096 7.6217 20.3254 6.29207 19.2923 5.18C19.1558 5.03284 18.9768 4.93188 18.7803 4.8912C18.5838 4.85051 18.3795 4.87211 18.1958 4.953L16.7868 5.5715C16.6413 5.6355 16.4843 5.6685 16.3253 5.6685H16.3213C16.0344 5.66791 15.7578 5.56195 15.5439 5.37077C15.3301 5.17959 15.1939 4.9165 15.1613 4.6315L14.9923 3.103C14.9703 2.90451 14.8875 2.71764 14.7553 2.56793C14.6232 2.41821 14.448 2.31295 14.2538 2.2665ZM12.0008 8.8755C12.8296 8.8755 13.6244 9.20474 14.2105 9.79079C14.7965 10.3768 15.1258 11.1717 15.1258 12.0005C15.1258 12.8293 14.7965 13.6242 14.2105 14.2102C13.6244 14.7963 12.8296 15.1255 12.0008 15.1255C11.172 15.1255 10.3771 14.7963 9.79107 14.2102C9.20501 13.6242 8.87577 12.8293 8.87577 12.0005C8.87577 11.1717 9.20501 10.3768 9.79107 9.79079C10.3771 9.20474 11.172 8.8755 12.0008 8.8755Z" fill="url(#paint0_linear_112_8636)"/>
<defs>
<linearGradient id="paint0_linear_112_8636" x1="25.3083" y1="10.5756" x2="12.693" y2="0.926418" gradientUnits="userSpaceOnUse">
<stop stop-color="#FF502D"/>
<stop offset="0.653746" stop-color="#99301B"/>
<stop offset="0.653846" stop-color="#F84E2C"/>
</linearGradient>
</defs>
</svg>
