<svg width="25" height="24" viewBox="0 0 25 24" fill="none" xmlns="http://www.w3.org/2000/svg">
<path d="M12.5 3.25C12.3011 3.25 12.1103 3.32902 11.9697 3.46967C11.829 3.61032 11.75 3.80109 11.75 4C11.75 4.19891 11.829 4.38968 11.9697 4.53033C12.1103 4.67098 12.3011 4.75 12.5 4.75C13.4521 4.75 14.3948 4.93753 15.2745 5.30187C16.1541 5.66622 16.9533 6.20025 17.6265 6.87348C18.2997 7.5467 18.8338 8.34593 19.1981 9.22554C19.5625 10.1052 19.75 11.0479 19.75 12C19.75 12.9521 19.5625 13.8948 19.1981 14.7745C18.8338 15.6541 18.2997 16.4533 17.6265 17.1265C16.9533 17.7997 16.1541 18.3338 15.2745 18.6981C14.3948 19.0625 13.4521 19.25 12.5 19.25C12.3011 19.25 12.1103 19.329 11.9697 19.4697C11.829 19.6103 11.75 19.8011 11.75 20C11.75 20.1989 11.829 20.3897 11.9697 20.5303C12.1103 20.671 12.3011 20.75 12.5 20.75C14.8206 20.75 17.0462 19.8281 18.6872 18.1872C20.3281 16.5462 21.25 14.3206 21.25 12C21.25 9.67936 20.3281 7.45376 18.6872 5.81282C17.0462 4.17187 14.8206 3.25 12.5 3.25Z" fill="white"/>
<path d="M10.97 9.52985C10.8375 9.38767 10.7654 9.19963 10.7688 9.00532C10.7723 8.81102 10.851 8.62564 10.9884 8.48823C11.1258 8.35081 11.3112 8.2721 11.5055 8.26867C11.6998 8.26524 11.8878 8.33737 12.03 8.46985L15.03 11.4698C15.1705 11.6105 15.2493 11.8011 15.2493 11.9998C15.2493 12.1986 15.1705 12.3892 15.03 12.5298L12.03 15.5298C11.9613 15.6035 11.8785 15.6626 11.7865 15.7036C11.6945 15.7446 11.5952 15.7667 11.4945 15.7684C11.3938 15.7702 11.2938 15.7517 11.2004 15.714C11.107 15.6762 11.0222 15.6201 10.951 15.5489C10.8797 15.4777 10.8236 15.3928 10.7859 15.2994C10.7482 15.2061 10.7296 15.106 10.7314 15.0053C10.7332 14.9046 10.7552 14.8053 10.7962 14.7133C10.8372 14.6213 10.8963 14.5385 10.97 14.4698L12.69 12.7498H4.5C4.30109 12.7498 4.11032 12.6708 3.96967 12.5302C3.82902 12.3895 3.75 12.1988 3.75 11.9998C3.75 11.8009 3.82902 11.6102 3.96967 11.4695C4.11032 11.3289 4.30109 11.2498 4.5 11.2498H12.69L10.97 9.52985Z" fill="white"/>
</svg>
