<svg width="78" height="79" viewBox="0 0 78 79" fill="none" xmlns="http://www.w3.org/2000/svg">
<g clip-path="url(#clip0_423_13261)">
<path d="M64.8416 65.6811C79.1179 51.2217 79.1179 27.7783 64.8416 13.3189C50.5652 -1.14052 27.4186 -1.14052 13.1422 13.3189C-1.13422 27.7783 -1.13422 51.2217 13.1422 65.6811C27.4186 80.1405 50.5652 80.1405 64.8416 65.6811Z" fill="#46CC6B"/>
<path fill-rule="evenodd" clip-rule="evenodd" d="M75.0362 45.782C72.4346 61.1994 60.4243 73.363 45.2025 75.9981L25.5196 56.0628C20.8096 52.1259 17.8076 46.1681 17.8076 39.5C17.8076 27.6455 27.2956 18.0359 39 18.0359C45.5837 18.0359 51.4661 21.0765 55.3532 25.8467L75.0362 45.782Z" fill="#179C5F"/>
<path fill-rule="evenodd" clip-rule="evenodd" d="M29.0803 40.7745L35.1158 46.3881C35.9962 47.209 37.359 47.1653 38.1869 46.3006L48.9545 35.8592C49.8303 35.0062 49.8568 33.595 49.0143 32.7075C48.1719 31.8214 46.7793 31.7936 45.9035 32.6466L36.5767 41.691L32.062 37.4921C31.1676 36.6586 29.7741 36.7171 28.9506 37.6239C28.1274 38.5298 28.1854 39.9402 29.0803 40.7745ZM39 18.0359C50.7044 18.0359 60.1924 27.6455 60.1924 39.5C60.1924 51.3545 50.7044 60.9641 39 60.9641C27.2956 60.9641 17.8076 51.3545 17.8076 39.5C17.8076 27.6455 27.2956 18.0359 39 18.0359Z" fill="white"/>
</g>
<defs>
<clipPath id="clip0_423_13261">
<rect width="78" height="79" fill="white"/>
</clipPath>
</defs>
</svg>
